<svg width="20" height="12" viewBox="0 0 20 12" fill="none" xmlns="http://www.w3.org/2000/svg">
<path d="M2.136 5.4738H7.896V6.8338H2.136V5.4738ZM2.28 10.4498H8.808V11.8418H0.68V0.641796H8.584V2.0338H2.28V10.4498ZM15.7028 3.2818C16.3961 3.2818 17.0041 3.41513 17.5268 3.6818C18.0601 3.94846 18.4761 4.3538 18.7748 4.8978C19.0734 5.4418 19.2228 6.1298 19.2228 6.9618V11.8418H17.6868V7.1378C17.6868 6.31646 17.4841 5.6978 17.0788 5.2818C16.6841 4.8658 16.1241 4.6578 15.3988 4.6578C14.8548 4.6578 14.3801 4.76446 13.9748 4.9778C13.5694 5.19113 13.2548 5.5058 13.0308 5.9218C12.8174 6.3378 12.7108 6.85513 12.7108 7.4738V11.8418H11.1748V3.3618H12.6468V5.6498L12.4068 5.0418C12.6841 4.48713 13.1108 4.05513 13.6868 3.7458C14.2628 3.43646 14.9348 3.2818 15.7028 3.2818Z" fill="#373737"/>
</svg>
