<svg width="106" height="14" viewBox="0 0 106 14" fill="none" xmlns="http://www.w3.org/2000/svg">
<path d="M0.692 0.399999H3.032V13H0.692V0.399999ZM12.002 12.478C11.738 12.694 11.414 12.856 11.03 12.964C10.658 13.072 10.262 13.126 9.84205 13.126C8.78605 13.126 7.97005 12.85 7.39405 12.298C6.81805 11.746 6.53005 10.942 6.53005 9.886V5.26H4.94605V3.46H6.53005V1.264H8.78005V3.46H11.354V5.26H8.78005V9.832C8.78005 10.3 8.89405 10.66 9.12205 10.912C9.35005 11.152 9.68005 11.272 10.112 11.272C10.616 11.272 11.036 11.14 11.372 10.876L12.002 12.478ZM22.5725 8.248C22.5725 8.404 22.5605 8.626 22.5365 8.914H14.9945C15.1265 9.622 15.4685 10.186 16.0205 10.606C16.5845 11.014 17.2805 11.218 18.1085 11.218C19.1645 11.218 20.0345 10.87 20.7185 10.174L21.9245 11.56C21.4925 12.076 20.9465 12.466 20.2865 12.73C19.6265 12.994 18.8825 13.126 18.0545 13.126C16.9985 13.126 16.0685 12.916 15.2645 12.496C14.4605 12.076 13.8365 11.494 13.3925 10.75C12.9605 9.994 12.7445 9.142 12.7445 8.194C12.7445 7.258 12.9545 6.418 13.3745 5.674C13.8065 4.918 14.4005 4.33 15.1565 3.91C15.9125 3.49 16.7645 3.28 17.7125 3.28C18.6485 3.28 19.4825 3.49 20.2145 3.91C20.9585 4.318 21.5345 4.9 21.9425 5.656C22.3625 6.4 22.5725 7.264 22.5725 8.248ZM17.7125 5.08C16.9925 5.08 16.3805 5.296 15.8765 5.728C15.3845 6.148 15.0845 6.712 14.9765 7.42H20.4305C20.3345 6.724 20.0405 6.16 19.5485 5.728C19.0565 5.296 18.4445 5.08 17.7125 5.08ZM36.8658 3.28C38.0778 3.28 39.0378 3.634 39.7458 4.342C40.4538 5.038 40.8078 6.088 40.8078 7.492V13H38.5578V7.78C38.5578 6.94 38.3718 6.31 37.9998 5.89C37.6278 5.458 37.0938 5.242 36.3978 5.242C35.6418 5.242 35.0358 5.494 34.5798 5.998C34.1238 6.49 33.8958 7.198 33.8958 8.122V13H31.6458V7.78C31.6458 6.94 31.4598 6.31 31.0878 5.89C30.7158 5.458 30.1818 5.242 29.4858 5.242C28.7178 5.242 28.1058 5.488 27.6498 5.98C27.2058 6.472 26.9838 7.186 26.9838 8.122V13H24.7338V3.388H26.8758V4.612C27.2358 4.18 27.6858 3.85 28.2258 3.622C28.7658 3.394 29.3658 3.28 30.0258 3.28C30.7458 3.28 31.3818 3.418 31.9338 3.694C32.4978 3.958 32.9418 4.354 33.2658 4.882C33.6618 4.378 34.1718 3.988 34.7958 3.712C35.4198 3.424 36.1098 3.28 36.8658 3.28Z" fill="#373737"/>
<path d="M62.0742 11.02V13H52.7863V11.434L57.7903 6.682C58.3543 6.142 58.7323 5.674 58.9243 5.278C59.1283 4.87 59.2303 4.468 59.2303 4.072C59.2303 3.484 59.0323 3.034 58.6363 2.722C58.2403 2.41 57.6583 2.254 56.8903 2.254C55.6063 2.254 54.6223 2.692 53.9383 3.568L52.3003 2.308C52.7923 1.648 53.4523 1.138 54.2803 0.778C55.1203 0.405999 56.0563 0.219999 57.0883 0.219999C58.4563 0.219999 59.5483 0.543999 60.3643 1.192C61.1803 1.84 61.5883 2.722 61.5883 3.838C61.5883 4.522 61.4443 5.164 61.1562 5.764C60.8683 6.364 60.3163 7.048 59.5003 7.816L56.1343 11.02H62.0742ZM67.3668 5.278C69.1428 5.278 70.4568 5.626 71.3088 6.322C72.1608 7.006 72.5868 7.942 72.5868 9.13C72.5868 9.886 72.4008 10.57 72.0288 11.182C71.6568 11.794 71.0988 12.28 70.3548 12.64C69.6108 13 68.6928 13.18 67.6008 13.18C66.7008 13.18 65.8308 13.054 64.9908 12.802C64.1508 12.538 63.4428 12.178 62.8668 11.722L63.8568 9.904C64.3248 10.288 64.8828 10.594 65.5308 10.822C66.1908 11.038 66.8688 11.146 67.5648 11.146C68.3928 11.146 69.0408 10.978 69.5088 10.642C69.9888 10.294 70.2288 9.82 70.2288 9.22C70.2288 8.572 69.9708 8.086 69.4548 7.762C68.9508 7.426 68.0808 7.258 66.8448 7.258H63.8028L64.4508 0.399999H71.8488V2.362H66.4308L66.1608 5.278H67.3668ZM75.3405 13.126C74.9325 13.126 74.5845 12.988 74.2965 12.712C74.0085 12.424 73.8645 12.064 73.8645 11.632C73.8645 11.188 74.0025 10.828 74.2785 10.552C74.5665 10.276 74.9205 10.138 75.3405 10.138C75.7605 10.138 76.1085 10.276 76.3845 10.552C76.6725 10.828 76.8165 11.188 76.8165 11.632C76.8165 12.064 76.6725 12.424 76.3845 12.712C76.0965 12.988 75.7485 13.126 75.3405 13.126ZM82.4234 0.399999V13H80.0834V2.362H77.4194V0.399999H82.4234ZM88.8649 5.278C90.6409 5.278 91.9549 5.626 92.8069 6.322C93.6589 7.006 94.0849 7.942 94.0849 9.13C94.0849 9.886 93.8989 10.57 93.5269 11.182C93.1549 11.794 92.5969 12.28 91.8529 12.64C91.1089 13 90.1909 13.18 89.0989 13.18C88.1989 13.18 87.3289 13.054 86.4889 12.802C85.6489 12.538 84.9409 12.178 84.3649 11.722L85.3549 9.904C85.8229 10.288 86.3809 10.594 87.0289 10.822C87.6889 11.038 88.3669 11.146 89.0629 11.146C89.8909 11.146 90.5389 10.978 91.0069 10.642C91.4869 10.294 91.7269 9.82 91.7269 9.22C91.7269 8.572 91.4689 8.086 90.9529 7.762C90.4489 7.426 89.5789 7.258 88.3429 7.258H85.3009L85.9489 0.399999H93.3469V2.362H87.9289L87.6589 5.278H88.8649ZM101.159 5.224C101.987 5.224 102.731 5.386 103.391 5.71C104.051 6.022 104.567 6.472 104.939 7.06C105.311 7.648 105.497 8.326 105.497 9.094C105.497 9.91 105.293 10.63 104.885 11.254C104.477 11.866 103.925 12.34 103.229 12.676C102.533 13.012 101.753 13.18 100.889 13.18C99.1606 13.18 97.8166 12.64 96.8566 11.56C95.9086 10.48 95.4346 8.932 95.4346 6.916C95.4346 5.5 95.6926 4.294 96.2086 3.298C96.7246 2.29 97.4446 1.528 98.3686 1.012C99.3046 0.483999 100.385 0.219999 101.609 0.219999C102.257 0.219999 102.863 0.291999 103.427 0.436C104.003 0.567999 104.501 0.765999 104.921 1.03L104.057 2.794C103.433 2.386 102.635 2.182 101.663 2.182C100.451 2.182 99.5026 2.554 98.8186 3.298C98.1346 4.042 97.7926 5.116 97.7926 6.52V6.538C98.1646 6.106 98.6386 5.782 99.2146 5.566C99.7906 5.338 100.439 5.224 101.159 5.224ZM100.763 11.344C101.495 11.344 102.089 11.152 102.545 10.768C103.001 10.372 103.229 9.85 103.229 9.202C103.229 8.542 103.001 8.02 102.545 7.636C102.089 7.252 101.477 7.06 100.709 7.06C99.9526 7.06 99.3346 7.264 98.8546 7.672C98.3866 8.08 98.1526 8.596 98.1526 9.22C98.1526 9.832 98.3806 10.342 98.8366 10.75C99.3046 11.146 99.9466 11.344 100.763 11.344Z" fill="#006DAB"/>
</svg>
