<svg width="33" height="15" viewBox="0 0 33 15" fill="none" xmlns="http://www.w3.org/2000/svg">
<path d="M12.8023 5.35491C12.7657 5.24692 12.6982 5.15203 12.6082 5.08195C12.5182 5.01187 12.4097 4.96968 12.296 4.96058L8.97041 4.69633L7.53133 1.51075C7.4855 1.40815 7.41095 1.321 7.31669 1.25983C7.22243 1.19866 7.11247 1.16608 7.0001 1.16602C6.88773 1.16595 6.77774 1.19842 6.68341 1.25948C6.58908 1.32055 6.51444 1.40761 6.4685 1.51016L5.02941 4.69633L1.70383 4.96058C1.5921 4.96943 1.48528 5.01029 1.39615 5.07826C1.30703 5.14623 1.23938 5.23843 1.20128 5.34385C1.16319 5.44926 1.15628 5.56342 1.18136 5.67266C1.20645 5.7819 1.26248 5.8816 1.34275 5.95983L3.80033 8.35558L2.93116 12.1192C2.90477 12.2332 2.91323 12.3524 2.95544 12.4615C2.99765 12.5705 3.07167 12.6644 3.16788 12.7308C3.2641 12.7973 3.37807 12.8333 3.495 12.8342C3.61194 12.8351 3.72645 12.8008 3.82366 12.7358L6.99991 10.6183L10.1762 12.7358C10.2755 12.8018 10.3927 12.8358 10.5119 12.8332C10.6312 12.8305 10.7468 12.7915 10.8431 12.7212C10.9395 12.6509 11.0121 12.5528 11.051 12.4401C11.09 12.3274 11.0935 12.2054 11.0611 12.0907L9.99416 8.35733L12.6402 5.97616C12.8134 5.81983 12.877 5.576 12.8023 5.35491Z" fill="#FF7A00"/>
<path d="M18.832 7.044C20.048 7.044 20.932 7.264 21.484 7.704C22.044 8.136 22.324 8.744 22.324 9.528C22.324 10.016 22.208 10.452 21.976 10.836C21.752 11.22 21.412 11.524 20.956 11.748C20.5 11.964 19.94 12.072 19.276 12.072C18.676 12.072 18.104 11.976 17.56 11.784C17.024 11.584 16.592 11.32 16.264 10.992L16.684 10.308C16.964 10.596 17.332 10.832 17.788 11.016C18.244 11.192 18.736 11.28 19.264 11.28C19.96 11.28 20.496 11.124 20.872 10.812C21.256 10.5 21.448 10.084 21.448 9.564C21.448 8.988 21.232 8.552 20.8 8.256C20.376 7.96 19.656 7.812 18.64 7.812H16.852L17.284 3.6H21.88V4.368H18.04L17.752 7.044H18.832ZM24.0689 12.06C23.8929 12.06 23.7409 11.996 23.6129 11.868C23.4929 11.74 23.4329 11.584 23.4329 11.4C23.4329 11.216 23.4929 11.064 23.6129 10.944C23.7409 10.816 23.8929 10.752 24.0689 10.752C24.2449 10.752 24.3969 10.816 24.5249 10.944C24.6529 11.064 24.7169 11.216 24.7169 11.4C24.7169 11.584 24.6529 11.74 24.5249 11.868C24.3969 11.996 24.2449 12.06 24.0689 12.06ZM28.937 7.2C29.817 7.248 30.485 7.488 30.941 7.92C31.405 8.344 31.637 8.9 31.637 9.588C31.637 10.068 31.521 10.496 31.289 10.872C31.057 11.24 30.713 11.532 30.257 11.748C29.801 11.964 29.245 12.072 28.589 12.072C27.981 12.072 27.405 11.976 26.861 11.784C26.325 11.584 25.893 11.32 25.565 10.992L25.985 10.308C26.265 10.596 26.637 10.832 27.101 11.016C27.565 11.192 28.061 11.28 28.589 11.28C29.277 11.28 29.809 11.132 30.185 10.836C30.561 10.532 30.749 10.116 30.749 9.588C30.749 9.068 30.561 8.66 30.185 8.364C29.809 8.068 29.241 7.92 28.481 7.92H27.881V7.284L30.209 4.368H25.913V3.6H31.313V4.212L28.937 7.2Z" fill="#373737"/>
</svg>
